
<svg id="Layer_1" height="512" viewBox="0 0 512 512" width="512" xmlns="http://www.w3.org/2000/svg" data-name="Layer 1"><path d="m491.42 372.43a60 60 0 0 1 -50.94 91.72h-368.96a60 60 0 0 1 -50.94-91.72l184.49-296.29a59.989 59.989 0 0 1 101.86 0z" fill="#71c2ff"/><path d="m465.95 388.29c12.44 19.98-1.93 45.86-25.47 45.86h-368.96c-23.54 0-37.91-25.88-25.47-45.86l184.48-296.29a30 30 0 0 1 50.94 0z" fill="#f1ce7c"/><path d="m269.76 211.09c0 .49-.03.99-.08 1.49l-13.68 127.66-13.68-127.66a13.759 13.759 0 1 1 27.44-1.49z" fill="#e75163"/><path d="m256.84 363.71a10.205 10.205 0 1 1 -10.21 10.21 10.208 10.208 0 0 1 10.21-10.21z" fill="#e75163"/><path d="m76.05 388.29 184.48-296.29a29.777 29.777 0 0 1 10.47-10.153 30.028 30.028 0 0 0 -40.47 10.153l-184.48 296.29c-12.44 19.98 1.93 45.86 25.47 45.86h30c-23.54 0-37.91-25.88-25.47-45.86z" fill="#d1af69"/><g fill="#284268"><path d="m312.028 72.968a66 66 0 0 0 -112.055 0l-184.483 296.294a66 66 0 0 0 56.029 100.885h368.963a66 66 0 0 0 56.028-100.885zm175.662 357.4a54.024 54.024 0 0 1 -47.208 27.782h-368.963a54 54 0 0 1 -45.841-82.542l184.482-296.297a54 54 0 0 1 91.681 0l184.481 296.294a54.024 54.024 0 0 1 1.368 54.76z"/><path d="m184.348 226.347a6 6 0 0 0 5.1-2.829l8.1-13.017a6 6 0 0 0 -10.188-6.343l-8.1 13.017a6 6 0 0 0 5.088 9.172z"/><path d="m174.9 235.53a6 6 0 0 0 -8.264 1.922l-52.1 83.684a6 6 0 0 0 10.188 6.343l52.1-83.684a6 6 0 0 0 -1.924-8.265z"/><path d="m286.561 88.824a36 36 0 0 0 -61.122 0l-184.482 296.295a36 36 0 0 0 30.561 55.028h50.529a6 6 0 0 0 0-12h-50.033a24.463 24.463 0 0 1 -21.114-11.713 23.723 23.723 0 0 1 .245-24.972l184.482-296.295a24 24 0 0 1 40.746 0l184.482 296.295a23.723 23.723 0 0 1 .245 24.972 24.463 24.463 0 0 1 -21.114 11.713h-277.939a6 6 0 1 0 0 12h278.435a36 36 0 0 0 30.561-55.028z"/><path d="m270.7 197.907a19.759 19.759 0 0 0 -34.344 15.311l13.68 127.663a6 6 0 0 0 11.932 0l13.68-127.663a19.785 19.785 0 0 0 -4.948-15.311zm-6.983 14.032-7.717 71.993-7.715-71.993a7.759 7.759 0 1 1 15.43 0z"/><path d="m240.63 373.916a16.209 16.209 0 1 0 16.208-16.208 16.226 16.226 0 0 0 -16.208 16.208zm20.417 0a4.209 4.209 0 1 1 -4.209-4.208 4.213 4.213 0 0 1 4.209 4.208z"/></g></svg>